PathFileType	4	(X/Y/Z)	PS_ngait_og_ss8.trc	
DataRate	CameraRate	NumFrames	NumMarkers	Units	OrigDataRate	OrigDataStartFrame	OrigNumFrames	
120.00	120.00	4	39	mm	120.00	458	129	
Frame#	Time	Sternum			Neck			RShoulder			LShoulder			Xiphoid			Thoracic			RAsis			LAsis			RPsis			LPsis			LThighSuperior			LThighInferior			LThighLateral			LShankSuperior			LShankInferior			LShankLateral			RThighSuperior			RThighInferior			RThighLateral			RShankSuperior			RShankInferior			RShankLateral			RHeel			RToe			RMidfootMedial			RMidfootLateral			RHindfoot			RMidfootSuperior			RToeMedial			RToeLateral			LHeel			LToe			LMidfootMedial			LMidfootLateral			LHindfoot			LMidfootSuperior			LToeMedial			LToeLateral			Sacral			
		X1	Y1	Z1	X2	Y2	Z2	X3	Y3	Z3	X4	Y4	Z4	X5	Y5	Z5	X6	Y6	Z6	X7	Y7	Z7	X8	Y8	Z8	X9	Y9	Z9	X10	Y10	Z10	X11	Y11	Z11	X12	Y12	Z12	X13	Y13	Z13	X14	Y14	Z14	X15	Y15	Z15	X16	Y16	Z16	X17	Y17	Z17	X18	Y18	Z18	X19	Y19	Z19	X20	Y20	Z20	X21	Y21	Z21	X22	Y22	Z22	X23	Y23	Z23	X24	Y24	Z24	X25	Y25	Z25	X26	Y26	Z26	X27	Y27	Z27	X28	Y28	Z28	X29	Y29	Z29	X30	Y30	Z30	X31	Y31	Z31	X32	Y32	Z32	X33	Y33	Z33	X34	Y34	Z34	X35	Y35	Z35	X36	Y36	Z36	X37	Y37	Z37	X38	Y38	Z38	X39	Y39	Z39	

81	0.667	765.08887	1434.55945	121.76414	601.24438	1531.70166	140.18517	656.67523	1509.24817	296.22440	622.64960	1527.36963	-3.37888	801.63721	1277.27502	119.09168	522.90106	1311.94739	144.06294	734.19720	1013.06689	255.99167	714.89532	1001.32489	-17.45391	538.16248	1031.29785	190.12999	524.62231	1021.82257	87.67824	648.80096	823.27356	-61.88224	660.84100	589.42126	-40.74055	744.62543	691.84430	2.05889	549.36035	395.59558	-41.47078	422.48694	249.76033	-4.12747	526.73883	295.13519	28.42684	705.81689	818.41962	308.56812	771.84033	589.08521	277.55801	816.39282	757.74622	233.43826	775.61115	429.74500	286.64697	796.46735	177.39174	250.10089	837.95752	309.17413	207.60533	715.51288	64.66194	195.87251	1031.32288	56.76446	208.43831	936.16199	35.46686	157.29071	931.14764	31.71462	273.24188	878.86835	32.13398	264.62820	896.29736	95.11305	207.59996	979.09552	39.96155	160.73120	979.63953	40.27154	264.21127	278.65231	203.49133	58.00564	519.32019	34.84317	3.53421	431.52039	52.20430	71.22918	411.68088	51.18003	-43.88061	371.83313	80.73639	-27.84886	444.83881	115.56676	18.79330	466.46848	36.45453	62.27092	452.65128	43.01861	-40.61464	531.39240	1026.56018	138.90411 
82	0.675	773.41516	1435.02783	122.22907	610.06390	1532.56885	142.05754	666.29742	1509.97229	297.24530	630.50104	1528.39380	-2.08328	809.56183	1277.71472	119.50673	531.10742	1312.68433	145.70125	743.08655	1014.84766	257.31528	722.94257	1001.55859	-15.93555	546.68549	1031.79504	192.20705	532.78540	1021.86285	89.44518	660.40808	823.28882	-60.88578	678.07001	589.77887	-41.78178	759.41583	693.64349	1.98792	566.33405	400.11191	-42.48615	436.53824	256.58847	-4.49915	544.80066	299.50391	27.47426	715.42847	819.80847	310.41455	777.85040	589.06085	278.00958	824.14301	757.60400	233.80016	780.12170	429.64017	286.77078	797.94470	177.01152	250.03311	841.02606	308.69547	207.69693	715.64673	64.93843	195.65012	1031.57983	55.82457	208.04047	936.35089	35.08047	157.02585	931.29443	31.67119	273.25803	878.97485	32.06788	264.59436	896.82947	95.12734	207.12794	979.22211	39.25965	160.39304	979.79541	39.85405	263.87170	294.00415	218.63271	58.19096	522.27527	30.71927	2.67622	436.53354	57.18784	70.58281	415.47266	56.39578	-43.56718	378.03915	87.89041	-27.13214	453.69800	119.45981	17.94116	470.08707	38.08896	61.56578	456.41562	44.27612	-41.36260	539.73547	1026.82898	140.82611 
83	0.683	781.55762	1435.47449	122.60812	618.61414	1533.38806	143.50034	675.72266	1510.73853	298.15125	638.13605	1529.18884	-0.90389	817.46844	1278.16260	119.71038	539.22662	1313.51184	147.02679	751.90179	1016.46399	258.81299	731.00916	1001.99054	-14.48690	555.19568	1032.31897	194.35460	540.95551	1021.88922	91.15827	671.81372	823.53198	-59.91478	695.05005	590.54333	-42.71395	773.79077	695.65466	1.60113	583.94446	404.50574	-43.75488	450.60376	263.23749	-5.29218	563.49896	303.75018	26.26832	724.65820	820.92188	311.99304	783.45807	588.94470	278.41772	831.56531	757.18567	234.63423	784.51495	429.30292	286.86954	799.39069	176.74768	249.87711	843.95068	307.55658	207.42642	715.78827	65.11394	195.57094	1031.89636	54.98104	207.92090	936.56470	34.56898	156.60056	931.39264	31.64449	273.32516	878.31134	31.88156	264.39600	897.37506	95.04432	206.44876	979.59442	38.54783	160.16672	979.84784	39.49889	263.64398	310.74490	233.40230	58.76370	524.99341	26.64382	1.60001	442.52942	62.52951	69.83884	420.84680	62.31985	-43.19296	384.91589	97.70654	-26.99411	463.22040	123.98714	17.12899	474.21655	39.95470	60.67991	460.49512	46.09417	-42.24467	548.07562	1027.10413	142.75644 
84	0.692	789.63855	1435.82971	122.80980	626.97260	1534.05908	144.71715	684.89087	1511.57813	298.93188	645.71295	1529.91821	0.22751	825.18707	1278.50000	119.98556	547.26233	1314.16211	148.62805	760.52356	1017.77960	260.19965	739.10876	1002.12152	-12.97430	563.59601	1032.78967	196.22026	549.15906	1022.05725	92.84982	682.93158	824.09283	-59.14539	711.53223	591.59161	-43.55493	787.73883	697.78479	0.91834	598.93860	409.62454	-44.36014	465.16626	269.89194	-6.16192	579.58118	308.72141	25.72585	733.42670	821.74585	313.26083	788.71533	588.75787	278.78369	839.00653	755.69604	235.07982	788.76129	429.14478	287.13641	800.82281	176.31763	249.79897	846.35089	306.92380	207.15454	715.76910	65.15066	195.72623	1031.94910	54.43896	207.76495	937.04498	33.80537	156.79933	931.43207	31.58827	273.42856	878.16547	31.81248	264.42645	897.44324	94.54197	205.99728	979.64856	37.69942	160.11578	979.88586	39.35771	263.58417	327.79163	246.79237	60.08184	528.14606	23.49677	1.28231	450.05716	68.03371	69.62193	426.53082	68.55024	-41.28051	393.19449	107.08078	-26.10614	473.47162	128.97858	16.75206	479.43408	42.44597	60.56110	465.29080	48.14949	-42.33146	556.37750	1027.42346	144.53505 
